<?xml version="1.0" encoding="UTF-8"?>
<svg width="48px" height="48px" viewBox="0 0 48 48" version="1.1" xmlns="http://www.w3.org/2000/svg" xmlns:xlink="http://www.w3.org/1999/xlink">
    <!-- Generator: Sketch 44.1 (41455) - http://www.bohemiancoding.com/sketch -->
    <title>dribbble</title>
    <desc>Created with Sketch.</desc>
    <defs></defs>
    <g id="-Home-Desktop" stroke="none" stroke-width="1" fill="none" fill-rule="evenodd">
        <g id="Artboard" transform="translate(-1039.000000, -175.000000)" fill="#EFEDDD">
            <path d="M1063.00005,223 C1049.76636,223 1039,212.233641 1039,198.999948 C1039,185.766151 1049.76636,175 1063.00005,175 C1076.23385,175 1087,185.766151 1087,198.999948 C1087,212.233641 1076.23385,223 1063.00005,223 Z M1083.24044,202.285239 C1082.53911,202.063821 1076.89534,200.380588 1070.47159,201.40892 C1073.15271,208.776936 1074.24391,214.777958 1074.45407,216.024998 C1079.053,212.915289 1082.32686,207.989189 1083.24044,202.285239 Z M1071.00755,217.901756 C1070.70285,216.103205 1069.51243,209.83506 1066.63442,202.356075 C1066.58937,202.371441 1066.54431,202.386051 1066.49926,202.401755 C1054.93669,206.430832 1050.78604,214.449348 1050.41712,215.203473 C1053.89294,217.913918 1058.26102,219.53095 1063.00005,219.53095 C1065.83985,219.53095 1068.54623,218.950167 1071.00755,217.901756 Z M1047.7703,212.737962 C1048.23464,211.943054 1053.86078,202.627677 1064.43327,199.210271 C1064.70047,199.123886 1064.96989,199.042736 1065.24113,198.966353 C1064.72646,197.801816 1064.16594,196.635952 1063.57906,195.487459 C1053.34169,198.551228 1043.40764,198.423227 1042.51074,198.404841 C1042.50447,198.61295 1042.5003,198.82158 1042.5003,199.031199 C1042.5003,204.296378 1044.49621,209.103696 1047.7703,212.737962 Z M1042.93332,194.832479 C1043.85021,194.844719 1052.29601,194.88144 1061.88505,192.334961 C1058.48837,186.296906 1054.8251,181.220356 1054.28465,180.479174 C1048.54953,183.184254 1044.2626,188.471491 1042.93332,194.832479 Z M1058.19612,179.101242 C1058.76279,179.860133 1062.48599,184.930172 1065.84506,191.102088 C1073.13474,188.369924 1076.22057,184.222325 1076.58934,183.697039 C1072.96911,180.485164 1068.20872,178.531422 1063.00005,178.531422 C1061.34604,178.531422 1059.73768,178.72987 1058.19612,179.101242 Z M1078.86809,186.067728 C1078.43604,186.652131 1075.00072,191.055992 1067.42118,194.150414 C1067.89829,195.127024 1068.3556,196.120042 1068.7814,197.119752 C1068.93219,197.474092 1069.07907,197.826714 1069.22283,198.177694 C1076.044,197.31997 1082.82141,198.694594 1083.49722,198.837544 C1083.45217,193.999105 1081.72318,189.555919 1078.86809,186.067728 Z" id="dribbble"></path>
        </g>
    </g>
</svg>