<?xml version="1.0" encoding="UTF-8"?>
<svg width="32px" height="20px" viewBox="0 0 32 20" version="1.1" xmlns="http://www.w3.org/2000/svg" xmlns:xlink="http://www.w3.org/1999/xlink">
    <!-- Generator: Sketch 44.1 (41455) - http://www.bohemiancoding.com/sketch -->
    <title>email</title>
    <desc>Created with Sketch.</desc>
    <defs></defs>
    <g id="Home-Mobile" stroke="none" stroke-width="1" fill="none" fill-rule="evenodd">
        <g id="Home-Copy" transform="translate(-50.000000, -497.000000)" fill="#347AAA">
            <g id="contact-button" transform="translate(0.000000, 477.000000)">
                <path d="M50.7733873,39.5791089 L62.7272727,33.0735931 L63.8255173,34.1195403 C65.0264509,35.2632866 66.9767864,35.2602035 68.1744827,34.1195403 L69.2727273,33.0735931 L81.2299454,39.5809227 C80.8912096,39.8435641 80.4643221,40 79.9982567,40 L52.0017433,40 C51.538764,40 51.1124955,39.8424714 50.7733873,39.5791089 Z M50.6603476,39.484505 C50.254832,39.1191521 50,38.5918125 50,38.0092049 L50,21.9907951 C50,21.6846896 50.0689275,21.39472 50.1924096,21.1356282 L60.9909801,31.419981 L50.6603476,39.484505 Z M81.3425656,39.4867792 L71.0090199,31.419981 L81.8058013,21.1373321 C81.9303013,21.3965268 82,21.6861029 82,21.9907951 L82,38.0092049 C82,38.5954228 81.7472049,39.1224614 81.3425656,39.4867792 Z M50.6375932,20.5313277 C50.9940537,20.2016051 51.4726535,20 52.0017433,20 L79.9982567,20 C80.5239901,20 81.0023864,20.2031268 81.3595754,20.5336872 L68.3094498,31.4087919 C67.0339759,32.4716868 64.9747884,32.4789904 63.6905502,31.4087919 L50.6375932,20.5313277 Z" id="email"></path>
            </g>
        </g>
    </g>
</svg>