<?xml version="1.0" encoding="UTF-8"?>
<svg width="30px" height="50px" viewBox="0 0 30 50" version="1.1" xmlns="http://www.w3.org/2000/svg" xmlns:xlink="http://www.w3.org/1999/xlink">
    <!-- Generator: Sketch 44.1 (41455) - http://www.bohemiancoding.com/sketch -->
    <title>tumblr</title>
    <desc>Created with Sketch.</desc>
    <defs></defs>
    <g id="-Home-Desktop" stroke="none" stroke-width="1" fill="none" fill-rule="evenodd">
        <g id="Artboard" transform="translate(-1137.000000, -173.000000)" fill-rule="nonzero" fill="#EFEDDD">
            <path d="M1166.46581,219.852584 C1164.77812,221.655015 1160.86702,222.878419 1157.36474,222.93617 L1156.98024,222.93617 C1145.21429,222.93617 1142.65881,214.285714 1142.65881,209.236322 L1142.65881,195.208207 L1138.02356,195.208207 C1137.7658,195.208207 1137.51859,195.105812 1137.33633,194.923548 C1137.15407,194.741285 1137.05167,194.494082 1137.05167,194.236322 L1137.05167,187.611702 C1137.05213,186.912961 1137.49255,186.290226 1138.15122,186.056991 C1144.19149,183.929331 1146.08587,178.658055 1146.36626,174.651216 C1146.44225,173.580547 1147.00228,173.06155 1147.93161,173.06155 L1154.84043,173.06155 C1155.37718,173.06155 1155.81231,173.496678 1155.81231,174.033435 L1155.81231,185.25304 L1163.8997,185.25304 C1164.43556,185.252618 1164.87066,185.686018 1164.87234,186.221884 L1164.87234,194.183131 C1164.87214,194.440891 1164.76955,194.688013 1164.58714,194.870134 C1164.40474,195.052256 1164.15746,195.154457 1163.8997,195.154255 L1155.77508,195.154255 L1155.77508,208.12766 C1155.77508,211.385258 1157.92173,212.284195 1159.24772,212.284195 C1160.51976,212.253799 1161.77204,211.866261 1162.3997,211.613982 C1162.8655,211.427052 1163.27508,211.303191 1163.64134,211.395137 C1163.98252,211.480243 1164.20669,211.721884 1164.3579,212.162614 L1166.50152,218.424012 C1166.67553,218.925532 1166.82523,219.468845 1166.46581,219.852584 Z" id="tumblr"></path>
        </g>
    </g>
</svg>